HIERARCHY
ROOT Hips
{
	OFFSET 0.00000 0.00000 0.00000
	CHANNELS 6 Xposition Yposition Zposition Zrotation Yrotation Xrotation 
	JOINT LHipJoint
	{
		OFFSET 0 0 0
		CHANNELS 3 Zrotation Yrotation Xrotation
		JOINT LeftHip
		{
			OFFSET 1.58895 -1.83665 0.71753
			CHANNELS 3 Zrotation Yrotation Xrotation
			JOINT LeftKnee
			{
				OFFSET 2.50528 -6.88321 0.00000
				CHANNELS 3 Zrotation Yrotation Xrotation
				JOINT LeftAnkle
				{
					OFFSET 2.63244 -7.23257 0.00000
					CHANNELS 3 Zrotation Yrotation Xrotation
					JOINT LeftToe
					{
						OFFSET 0.23691 -0.65090 1.72750
						CHANNELS 3 Zrotation Yrotation Xrotation
						End Site
						{
							OFFSET 0.00000 -0.00000 0.92561
						}
					}
				}
			}
		}
	}
	JOINT RHipJoint
	{
		OFFSET 0 0 0
		CHANNELS 3 Zrotation Yrotation Xrotation
		JOINT RightHip
		{
			OFFSET -1.51435 -1.83665 0.71753
			CHANNELS 3 Zrotation Yrotation Xrotation
			JOINT RightKnee
			{
				OFFSET -2.54551 -6.99375 0.00000
				CHANNELS 3 Zrotation Yrotation Xrotation
				JOINT RightAnkle
				{
					OFFSET -2.66027 -7.30903 0.00000
					CHANNELS 3 Zrotation Yrotation Xrotation
					JOINT RightToe
					{
						OFFSET -0.22981 -0.63138 2.03959
						CHANNELS 3 Zrotation Yrotation Xrotation
						End Site
						{
							OFFSET -0.00000 -0.00000 1.07060
						}
					}
				}
			}
		}
	}
	JOINT lowerback
	{
		OFFSET 0 0 0
		CHANNELS 3 Zrotation Yrotation Xrotation
		JOINT Chest
		{
			OFFSET -0.02651 1.86275 -0.11152
			CHANNELS 3 Zrotation Yrotation Xrotation
			JOINT Chest2
			{
				OFFSET 0.01019 1.86224 0.04087
				CHANNELS 3 Zrotation Yrotation Xrotation
				JOINT lowerneck
				{
					OFFSET 0 0 0
					CHANNELS 3 Zrotation Yrotation Xrotation
					JOINT Neck
					{
						OFFSET -0.01926 1.80512 0.08867
						CHANNELS 3 Zrotation Yrotation Xrotation
						JOINT Head
						{
							OFFSET 0.05516 1.76451 -0.38475
							CHANNELS 3 Zrotation Yrotation Xrotation
							End Site
							{
								OFFSET 0.01592 1.82587 -0.14001
							}
						}
					}
				}
				JOINT LeftCollar
				{
					OFFSET 0 0 0
					CHANNELS 3 Zrotation Yrotation Xrotation
					JOINT LeftShoulder
					{
						OFFSET 3.47116 1.51376 0.14491
CHANNELS 3 Zrotation Xrotation Yrotation
						JOINT LeftElbow
						{
OFFSET 0 -4.780950 0.000000
CHANNELS 3 Zrotation Xrotation Yrotation
							JOINT LeftWrist
							{
OFFSET 0 -3.586150 -0.000000
CHANNELS 3 Zrotation Xrotation Yrotation
								JOINT lhand
								{
									OFFSET 0 0 0
CHANNELS 3 Zrotation Xrotation Yrotation
									JOINT LFingers
									{
OFFSET 0 -0.659810 0.000000
CHANNELS 3 Zrotation Xrotation Yrotation
										End Site
										{
OFFSET 0 -0.531960 0.000000
										}
									}
								}
								JOINT LThumb
								{
OFFSET 0 0.000000 0.000000
CHANNELS 3 Zrotation Xrotation Yrotation
									End Site
									{
OFFSET 0 -0.540080 0.540080
									}
								}
							}
						}
					}
				}
				JOINT RightCollar
				{
					OFFSET 0 0 0
					CHANNELS 3 Zrotation Yrotation Xrotation
					JOINT RightShoulder
					{
						OFFSET -3.31725 1.61216 0.35156
CHANNELS 3 Zrotation Xrotation Yrotation
						JOINT RightElbow
						{
OFFSET 0 -4.489130 0.000000
CHANNELS 3 Zrotation Xrotation Yrotation
							JOINT RightWrist
							{
OFFSET 0 -3.705100 0.000000
CHANNELS 3 Zrotation Xrotation Yrotation
								JOINT rhand
								{
									OFFSET 0 0 0
CHANNELS 3 Zrotation Xrotation Yrotation
									JOINT RFingers
									{
OFFSET 0 -0.449140 0.000000
CHANNELS 3 Zrotation Xrotation Yrotation
										End Site
										{
OFFSET 0 -0.362110 0.000000
										}
									}
								}
								JOINT RThumb
								{
OFFSET 0 0.000000 0.000000
CHANNELS 3 Zrotation Xrotation Yrotation
									End Site
									{
OFFSET 0 -0.367630 0.367630
									}
								}
							}
						}
					}
				}
			}
		}
	}
}
MOTION
Frames: 7
Frame Time: 0.008333333333333333
-0.381325 18.780975 5.158296 -1.085332 3.416338 17.955451 0.000000 0.000000 0.000000 -10.497767 -9.694654 -30.299947 2.507425 9.851405 28.496806 0.830351 0.858397 -17.548247 8.911125 -16.750150 -55.782151 0.000000 0.000000 0.000000 12.358406 7.274833 -15.033765 -0.204520 -2.911539 8.032537 -0.934830 -6.818420 -21.955961 -0.304417 3.547431 -9.806802 -1.642247 0.198846 26.543748 -2.753179 -0.654377 0.318775 -1.994083 -0.309046 -14.594680 -0.182049 3.932052 -18.816661 -1.870046 5.345397 -2.902115 -0.165120 2.614372 2.345251 0.000000 0.000000 0.000000 3.182500 4.516775 -49.653265 129.072006 -53.362966 93.082965 -24.155131 24.518462 10.996762 0.000000 0.000000 0.000000 -7.125000 0.000000 0.000000 -33.530209 18.090919 -26.467619 0.000000 0.000000 0.000000 -3.091867 9.698916 40.515114 -136.619600 -49.949869 -99.008465 -6.445437 15.961171 51.545937 0.000000 0.000000 0.000000 7.125000 0.000000 0.000000 64.727640 73.156347 -47.988897
-0.372518 18.778064 5.122766 -1.148117 3.645237 18.002785 0.000000 0.000000 0.000000 -10.326108 -10.207561 -30.493415 2.537225 9.905239 28.670512 0.829227 1.168948 -17.664625 8.898288 -16.741791 -55.737745 0.000000 0.000000 0.000000 12.408236 7.046722 -14.967362 -0.177577 -2.713452 7.482052 -0.887250 -7.130845 -21.755349 -0.325641 3.667230 -10.142432 -1.303735 0.148864 26.515620 -2.520330 -0.572405 0.534169 -1.944969 -0.283566 -14.318668 -0.308566 3.690333 -18.759125 -1.313607 5.084894 1.831542 0.061622 2.452150 3.610926 0.000000 0.000000 0.000000 2.356194 3.651169 -50.581147 129.242153 -53.296586 93.219397 -25.126010 22.708174 10.683238 0.000000 0.000000 0.000000 -7.125000 0.000000 0.000000 -34.095611 18.229894 -27.021140 0.000000 0.000000 0.000000 -2.897945 9.900342 40.468045 -136.856289 -49.826015 -99.189449 -4.633892 14.295486 51.696431 0.000000 0.000000 0.000000 7.125000 0.000000 0.000000 66.266257 72.553901 -48.673416
-0.364180 18.776656 5.095909 -1.276333 3.581429 18.091589 0.000000 0.000000 0.000000 -10.139847 -10.477300 -30.676166 2.558811 9.944081 28.795777 0.831292 1.471978 -17.816229 8.896755 -16.740805 -55.732270 0.000000 0.000000 0.000000 12.452383 7.105592 -14.825707 -0.147040 -2.469974 6.806448 -0.845483 -7.484849 -21.641826 -0.316210 3.614655 -9.995014 -1.088782 0.254757 26.175381 -2.280277 -0.316929 0.793442 -1.876925 -0.170391 -13.814290 -0.557005 3.122772 -18.558540 -0.451837 4.355298 6.182967 0.351031 2.094611 4.825510 0.000000 0.000000 0.000000 1.924812 2.897076 -51.714207 129.373006 -53.245246 93.324329 -26.025108 20.809858 10.213022 0.000000 0.000000 0.000000 -7.125000 0.000000 0.000000 -34.657571 18.510331 -27.437471 0.000000 0.000000 0.000000 -2.967438 10.051256 40.593835 -136.866284 -49.820713 -99.197135 -3.535356 13.387809 52.108666 0.000000 0.000000 0.000000 7.125000 0.000000 0.000000 68.131590 72.305839 -50.057957
-0.369343 18.781150 5.085020 -1.352124 3.495665 18.083800 0.000000 0.000000 0.000000 -10.009643 -10.555973 -30.649591 2.561276 9.948471 28.810025 0.835461 1.585221 -17.908810 8.908963 -16.748816 -55.774769 0.000000 0.000000 0.000000 12.537115 7.142306 -14.497464 -0.120006 -2.231775 6.146796 -0.810459 -7.855667 -21.609312 -0.321876 3.646276 -10.083657 -1.068985 0.399761 25.859608 -2.051036 -0.076251 0.989249 -1.704507 -0.051116 -13.401820 -1.149236 2.276240 -17.943554 0.923857 3.204440 9.683079 0.799361 1.589525 5.806747 0.000000 0.000000 0.000000 1.934119 2.480598 -52.958004 129.406651 -53.231969 93.351261 -26.625595 19.777281 10.164997 0.000000 0.000000 0.000000 -7.125000 0.000000 0.000000 -34.960894 18.451625 -27.881388 0.000000 0.000000 0.000000 -3.186601 10.361985 40.968145 -136.758509 -49.877288 -99.114812 -0.966098 11.655218 52.793197 0.000000 0.000000 0.000000 7.125000 0.000000 0.000000 71.546325 71.615416 -52.357407
-0.373334 18.782505 5.081890 -1.425035 3.362218 18.038718 0.000000 0.000000 0.000000 -9.946923 -10.463601 -30.554772 2.551450 9.930814 28.753112 0.842518 1.567633 -17.973603 8.880737 -16.730398 -55.676825 0.000000 0.000000 0.000000 12.600944 7.243577 -14.206757 -0.103575 -2.075600 5.714566 -0.791995 -8.121858 -21.652080 -0.350855 3.805586 -10.530503 -1.095179 0.473929 25.625301 -1.869267 0.046732 1.114970 -1.519603 0.014888 -13.122359 -1.756407 1.343455 -16.936602 2.312169 1.864569 12.147561 1.220779 1.017903 6.426967 0.000000 0.000000 0.000000 2.353434 2.392816 -53.924803 129.557526 -53.172385 93.472121 -27.288645 19.132967 10.229525 0.000000 0.000000 0.000000 -7.125000 0.000000 0.000000 -35.260045 18.274730 -28.452124 0.000000 0.000000 0.000000 -3.407484 10.560014 41.655283 -136.499850 -50.012085 -98.916757 -0.142434 11.437153 52.598852 0.000000 0.000000 0.000000 7.125000 0.000000 0.000000 71.454405 71.262296 -51.852526
-0.374400 18.780433 5.078176 -1.412942 3.413800 17.949587 0.000000 0.000000 0.000000 -9.927248 -10.613088 -30.406509 2.550382 9.928923 28.747026 0.850670 1.572360 -18.059245 8.855879 -16.714075 -55.590346 0.000000 0.000000 0.000000 12.596193 7.217351 -14.159093 -0.106685 -2.105966 5.798654 -0.810210 -8.075239 -21.782301 -0.349610 3.799117 -10.512269 -0.988836 0.436521 25.605890 -1.724140 0.049962 1.142909 -1.415370 0.015874 -13.078502 -2.575420 0.280836 -16.098672 3.737693 0.325717 14.620536 1.675653 0.358062 7.116098 0.000000 0.000000 0.000000 2.973692 2.540017 -54.768417 129.725094 -53.105780 93.606161 -27.974406 18.476639 10.239078 0.000000 0.000000 0.000000 -7.125000 0.000000 0.000000 -35.577824 18.136223 -29.018945 0.000000 0.000000 0.000000 -3.635440 10.479882 42.205236 -136.038691 -50.249150 -98.562768 -0.936826 12.071969 51.522578 0.000000 0.000000 0.000000 7.125000 0.000000 0.000000 68.017424 71.175331 -48.628712
-0.373736 18.773204 5.077434 -1.389872 3.507840 17.820547 0.000000 0.000000 0.000000 -9.901276 -10.881224 -30.245316 2.567881 9.960304 28.848151 0.861206 1.670677 -18.209875 8.858457 -16.715760 -55.599363 0.000000 0.000000 0.000000 12.580591 7.232509 -14.336161 -0.130811 -2.329021 6.416036 -0.848697 -7.913597 -22.004109 -0.387341 3.995545 -11.064188 -0.881628 0.353747 25.546410 -1.572300 -0.004720 1.142322 -1.283431 -0.009138 -13.047007 -4.357488 -0.976616 -16.052036 6.012767 -1.497893 17.901891 2.564883 -0.388106 8.283428 0.000000 0.000000 0.000000 3.580542 2.735578 -55.325331 129.791588 -53.079240 93.659296 -29.000334 17.784775 9.837645 0.000000 0.000000 0.000000 -7.125000 0.000000 0.000000 -36.150869 18.289463 -29.628859 0.000000 0.000000 0.000000 -3.873651 10.480914 42.701926 -135.861776 -50.338979 -98.426678 -0.093423 11.248265 51.482960 0.000000 0.000000 0.000000 7.125000 0.000000 0.000000 68.428030 70.867128 -48.626982
